<svg xmlns="http://www.w3.org/2000/svg" width="750" height="750" viewBox="0 0 750 750">
    <ellipse cx="375" cy="375" rx="375" ry="375"/>
    <path d="m246 439.3c-12-68.3-15.9-90-20.9-148.6-2.5-29.3-3.8-51.6-3.9-51.6-46.9 22.7-75.1 38-105.7 60.1-24.5 17.7-27.8-0.9-10.9-13.1 47.6-34.5 91-55.5 123.3-67.7 61.5-23.4 138.8-33.5 205.3-32.9-103.3 11.1-145.8 27.3-191.1 45.8 0.1 25.6 2.2 44.4 2.7 58.4 1.4 42.6 11.4 177.4 29.7 274.8-1.8-5.2-16.4-56.3-28.5-125.2zm208.2 96.8c-3.9-39.7-4.1-88.6-2.8-129.2 1.2-40.8 0.7-53.5 2.7-97 2-42.8 3.6-56.8 5.2-73.4-27.2 1.9-62 11.2-87.8 15-18.2 2.7-21.3-11.6-1.4-18.1 26.4-8.6 50.9-12.3 101.3-14.3 41.5-1.6 142.4 11.2 184.5 30.1C552.2 232.8 531 231.7 480 234.8c-4.6 31.4-6.2 47.8-8.7 75.2-3.3 37-9.3 98.1-17.2 226.1z" fill="#fff"/>
</svg>
